<svg width="219" height="42" viewBox="0 0 219 42" fill="none" xmlns="http://www.w3.org/2000/svg">
<path d="M35.552 33.36H31.856V20.292C31.856 18.2093 31.724 16.684 31.46 15.716C31.2253 14.748 30.6827 13.9413 29.832 13.296C29.0107 12.6213 27.9107 12.284 26.532 12.284C25.1827 12.284 23.9067 12.724 22.704 13.604C21.5013 14.484 20.6653 15.6867 20.196 17.212C19.7267 18.708 19.492 20.9373 19.492 23.9V33.36H15.928V21.084C15.928 18.6787 15.796 16.948 15.532 15.892C15.2973 14.836 14.7547 13.9707 13.904 13.296C13.0533 12.6213 11.9827 12.284 10.692 12.284C9.40133 12.284 8.16933 12.6947 6.996 13.516C5.852 14.308 5.00133 15.364 4.444 16.684C3.88667 17.9747 3.608 20.1307 3.608 23.152V33.36H0V9.37999H3.608V12.768C5.66133 10.0987 8.228 8.76399 11.308 8.76399C12.98 8.76399 14.4907 9.21865 15.84 10.128C17.2187 11.008 18.2013 12.2693 18.788 13.912C19.7853 12.24 21.032 10.964 22.528 10.084C24.024 9.20399 25.608 8.76399 27.28 8.76399C29.568 8.76399 31.5187 9.57065 33.132 11.184C34.7453 12.7973 35.552 15.8333 35.552 20.292V33.36Z" fill="black"/>
<path d="M52.689 8.76399C56.1503 8.76399 59.0836 10.0107 61.489 12.504C63.9236 14.9973 65.141 17.9893 65.141 21.48C65.141 24.9707 63.9383 27.9627 61.533 30.456C59.157 32.92 56.209 34.152 52.689 34.152C49.169 34.152 46.2063 32.92 43.801 30.456C41.3956 27.9627 40.193 24.9707 40.193 21.48C40.193 17.9893 41.3956 14.9973 43.801 12.504C46.2356 10.0107 49.1983 8.76399 52.689 8.76399ZM52.689 30.676C55.1236 30.676 57.1916 29.796 58.893 28.036C60.6236 26.2467 61.489 24.1053 61.489 21.612C61.489 19.0893 60.609 16.9187 58.849 15.1C57.1183 13.252 55.0503 12.328 52.645 12.328C50.269 12.328 48.2156 13.252 46.485 15.1C44.7543 16.9187 43.889 19.0893 43.889 21.612C43.889 24.1347 44.725 26.276 46.397 28.036C48.069 29.796 50.1663 30.676 52.689 30.676Z" fill="black"/>
<path d="M82.245 9.73199L80.353 12.812C79.8543 12.548 79.3703 12.416 78.901 12.416C77.9917 12.416 77.1703 12.8707 76.437 13.78C75.7037 14.66 75.1463 15.8333 74.765 17.3C74.413 18.7373 74.237 21.348 74.237 25.132V33.36H70.541V9.37999H74.237V11.976C74.9703 10.8907 75.7037 10.084 76.437 9.55599C77.1997 9.02799 78.0503 8.76399 78.989 8.76399C79.957 8.76399 81.0423 9.08665 82.245 9.73199Z" fill="black"/>
<path d="M92.0114 13.032C94.3874 10.1867 97.3207 8.76399 100.811 8.76399C104.302 8.76399 107.265 10.0107 109.699 12.504C112.134 14.968 113.351 17.9453 113.351 21.436C113.351 24.9267 112.149 27.9187 109.743 30.412C107.338 32.9053 104.434 34.152 101.031 34.152C97.6287 34.152 94.622 32.7147 92.0114 29.84V41.852H88.4034V9.37999H92.0114V13.032ZM100.811 30.764C103.217 30.764 105.299 29.8693 107.059 28.08C108.849 26.2613 109.743 24.076 109.743 21.524C109.743 18.972 108.863 16.8013 107.103 15.012C105.373 13.1933 103.246 12.284 100.723 12.284C98.2007 12.284 96.074 13.1787 94.3434 14.968C92.642 16.728 91.7914 18.9133 91.7914 21.524C91.7914 24.1347 92.6714 26.3347 94.4314 28.124C96.1914 29.884 98.318 30.764 100.811 30.764Z" fill="black"/>
<path d="M140.384 33.36H136.732V21.92C136.732 19.6907 136.658 18.1213 136.512 17.212C136.394 16.3027 136.101 15.452 135.632 14.66C135.162 13.8387 134.517 13.2227 133.696 12.812C132.904 12.372 131.936 12.152 130.792 12.152C129.677 12.152 128.606 12.416 127.58 12.944C126.553 13.472 125.673 14.2053 124.94 15.144C124.206 16.0827 123.693 17.08 123.4 18.136C123.136 19.192 123.004 21.304 123.004 24.472V33.36H119.352V0.359985H123.004V12.988C125.38 10.172 128.196 8.76399 131.452 8.76399C133.182 8.76399 134.752 9.21865 136.16 10.128C137.568 11.008 138.624 12.24 139.328 13.824C140.032 15.3787 140.384 17.784 140.384 21.04V33.36Z" fill="black"/>
<path d="M170.835 22.008H149.803C149.95 24.648 150.83 26.7747 152.443 28.388C154.086 29.972 156.036 30.764 158.295 30.764C162.138 30.764 165.071 28.872 167.095 25.088L170.175 26.672C168.796 29.224 167.168 31.116 165.291 32.348C163.414 33.5507 161.17 34.152 158.559 34.152C154.951 34.152 151.974 32.92 149.627 30.456C147.28 27.9627 146.107 24.9707 146.107 21.48C146.107 17.9893 147.28 14.9973 149.627 12.504C152.003 10.0107 154.936 8.76399 158.427 8.76399C161.918 8.76399 164.836 9.95199 167.183 12.328C169.53 14.6747 170.747 17.9013 170.835 22.008ZM166.787 18.796C166.347 16.7427 165.35 15.144 163.795 14C162.24 12.856 160.451 12.284 158.427 12.284C154.32 12.284 151.592 14.4547 150.243 18.796H166.787Z" fill="black"/>
<path d="M197.504 33.36H193.852V29.752C191.476 32.568 188.66 33.976 185.404 33.976C183.674 33.976 182.104 33.536 180.696 32.656C179.288 31.7467 178.232 30.5147 177.528 28.96C176.824 27.376 176.472 24.956 176.472 21.7V9.37999H180.08V20.82C180.08 23.46 180.198 25.264 180.432 26.232C180.696 27.1707 181.063 27.9773 181.532 28.652C182.031 29.2973 182.647 29.7813 183.38 30.104C184.143 30.4267 185.052 30.588 186.108 30.588C187.194 30.588 188.25 30.324 189.276 29.796C190.303 29.268 191.183 28.5347 191.916 27.596C192.65 26.6573 193.148 25.66 193.412 24.604C193.706 23.548 193.852 21.436 193.852 18.268V9.37999H197.504V33.36Z" fill="black"/>
<path d="M218.09 12.196L215.758 14.616C214.027 13.0027 212.443 12.196 211.006 12.196C210.096 12.196 209.334 12.4893 208.718 13.076C208.102 13.6333 207.794 14.3373 207.794 15.188C207.794 16.0093 208.131 16.7427 208.806 17.388C209.51 18.004 210.742 18.7813 212.502 19.72C214.262 20.6293 215.611 21.6413 216.55 22.756C217.518 23.8707 218.002 25.2347 218.002 26.848C218.002 28.9013 217.283 30.632 215.846 32.04C214.438 33.448 212.692 34.152 210.61 34.152C207.706 34.152 205.286 32.92 203.35 30.456L205.638 27.904C207.222 29.752 208.835 30.676 210.478 30.676C211.592 30.676 212.546 30.3093 213.338 29.576C214.13 28.8427 214.526 27.992 214.526 27.024C214.526 26.0267 214.159 25.2053 213.426 24.56C212.722 23.8853 211.49 23.108 209.73 22.228C207.999 21.348 206.679 20.38 205.77 19.324C204.89 18.2387 204.45 16.8307 204.45 15.1C204.45 13.34 205.08 11.844 206.342 10.612C207.632 9.37999 209.319 8.76399 211.402 8.76399C213.514 8.76399 215.743 9.90799 218.09 12.196Z" fill="black"/>
</svg>
